<svg width="33" height="33" viewBox="0 0 33 33" fill="none" xmlns="http://www.w3.org/2000/svg">
<path d="M16.5 0C7.392 0 0 7.392 0 16.5C0 25.608 7.392 33 16.5 33C25.608 33 33 25.608 33 16.5C33 7.392 25.608 0 16.5 0ZM8.3655 26.862C9.075 25.377 13.398 23.925 16.5 23.925C19.602 23.925 23.9415 25.377 24.6345 26.862C22.3905 28.644 19.569 29.7 16.5 29.7C13.431 29.7 10.6095 28.644 8.3655 26.862ZM26.994 24.4695C24.6345 21.5985 18.909 20.625 16.5 20.625C14.091 20.625 8.3655 21.5985 6.006 24.4695C4.323 22.2585 3.3 19.503 3.3 16.5C3.3 9.2235 9.2235 3.3 16.5 3.3C23.7765 3.3 29.7 9.2235 29.7 16.5C29.7 19.503 28.677 22.2585 26.994 24.4695ZM16.5 6.6C13.299 6.6 10.725 9.174 10.725 12.375C10.725 15.576 13.299 18.15 16.5 18.15C19.701 18.15 22.275 15.576 22.275 12.375C22.275 9.174 19.701 6.6 16.5 6.6ZM16.5 14.85C15.1305 14.85 14.025 13.7445 14.025 12.375C14.025 11.0055 15.1305 9.9 16.5 9.9C17.8695 9.9 18.975 11.0055 18.975 12.375C18.975 13.7445 17.8695 14.85 16.5 14.85Z" fill="black"/>
</svg>
