<svg width="39" height="26" viewBox="0 0 39 26" fill="none" xmlns="http://www.w3.org/2000/svg">
<path d="M32.5494 16.1464C33.7506 17.4713 35.0177 18.7133 36.0873 20.1872C36.5645 20.8331 37.0089 21.5121 37.3544 22.2573C37.8481 23.3337 37.4038 24.5095 36.5481 24.5757H31.2823C29.9164 24.7082 28.8304 24.0789 27.9253 23.0356C27.2013 22.191 26.5266 21.2968 25.819 20.4356C25.5392 20.0878 25.2266 19.7401 24.8646 19.4751C24.1405 18.9452 23.5152 19.1108 23.1038 19.9554C22.6924 20.8165 22.5937 21.777 22.5443 22.7375C22.4949 24.1452 22.1165 24.5095 20.8658 24.5757C18.2 24.7248 14.0203 24.2611 11.6671 22.7375C9.59367 21.3961 7.98101 19.5082 6.58228 17.3554C3.9 13.1821 2.22152 8.85982 1.57975 3.87511C1.1519 2.81524 1.46456 2.23562 2.50127 2.21906C4.22912 2.18594 5.94051 2.18594 7.66836 2.21906C8.3595 2.23562 8.83671 2.68275 9.1 3.42798C10.038 6.01141 11.1734 8.47893 12.6051 10.7643C12.9835 11.377 13.3785 11.9732 13.9215 12.4038C14.5304 12.884 14.9911 12.7184 15.2873 11.9566C15.4684 11.4598 15.5506 10.9464 15.5835 10.4165C15.7316 8.61142 15.7481 6.82288 15.5013 5.01778C15.3532 3.90823 14.7937 3.17957 13.8063 2.96428C13.3127 2.86492 13.3785 2.64963 13.6253 2.31842C14.0532 1.75536 14.4481 1.40759 15.238 1.40759H21.1949C22.1329 1.62288 22.3468 2.08657 22.462 3.16301V10.6484C22.4456 11.0624 22.643 12.2878 23.3013 12.5694C23.8278 12.7681 24.1734 12.2878 24.4861 11.907C25.9177 10.1847 26.938 8.16428 27.843 6.07766C28.2544 5.15027 28.6 4.18976 28.9291 3.24581C29.1759 2.53371 29.5709 2.18594 30.2785 2.2025H36.0215C36.1861 2.2025 36.3671 2.2025 36.5316 2.23562C37.5025 2.41778 37.7658 2.89804 37.4696 3.95791C36.9924 5.63052 36.0873 7.03817 35.1823 8.42925C34.2278 9.9197 33.2076 11.377 32.2532 12.884C31.3975 14.2586 31.4797 14.9541 32.5494 16.1464Z" stroke="#E64545" stroke-width="1.7"/>
</svg>
