<svg width="28" height="25" viewBox="0 0 28 25" fill="none" xmlns="http://www.w3.org/2000/svg">
<path d="M13.2275 12.7443L8.28034 15.6745C7.99007 15.8416 7.6367 15.8545 7.33381 15.7002L0.556669 12.2559L13.2275 12.7443ZM13.2275 12.7443L10.5141 15.1862C10.2996 15.3789 10.1734 15.6488 10.1734 15.9444V23.9897C10.1734 24.9664 11.3976 25.3648 11.9655 24.5937L14.8303 20.7125L21.9861 24.8636C22.5666 25.2106 23.3112 24.8636 23.45 24.1825L27.9807 1.21617C28.1322 0.432206 27.3624 -0.22324 26.643 0.0723532L0.632391 10.4053C-0.162692 10.7266 -0.225794 11.8575 0.544049 12.2559L13.2275 12.7443ZM13.7828 18.7847L12.18 20.9567V16.3942L22.0239 7.51359C22.92 6.70392 21.8851 5.26451 20.8629 5.8814L7.75028 13.6439L3.44674 11.4591L25.6965 2.61702L21.7968 22.3961L15.0701 18.4891C14.641 18.2578 14.0857 18.3734 13.7828 18.7847Z" fill="#E64545"/>
</svg>
